<svg xmlns="http://www.w3.org/2000/svg" viewBox="0 0 240 80" width="240" height="80">
  <!-- A. 의사소통 — 겹치는 메시지 버블 + 빨간 알림 카운트 -->
  <defs>
    <linearGradient id="aBg" x1="0" y1="0" x2="0" y2="1">
      <stop offset="0" stop-color="#2a2a40"/>
      <stop offset="1" stop-color="#1d1d2c"/>
    </linearGradient>
  </defs>
  <rect width="240" height="80" fill="url(#aBg)"/>
  <!-- 뒤쪽 버블 (흐림) -->
  <g opacity="0.35">
    <path d="M30 50 Q30 38 42 38 L94 38 Q106 38 106 50 L106 56 Q106 62 100 64 L96 70 L92 64 L42 64 Q30 64 30 56 Z" fill="#4f6fff"/>
  </g>
  <!-- 메인 버블 1 (좌) -->
  <path d="M22 30 Q22 18 36 18 L96 18 Q110 18 110 30 L110 44 Q110 56 96 56 L48 56 L40 64 L42 56 Q22 56 22 44 Z" fill="#4f6fff"/>
  <circle cx="50" cy="38" r="2.2" fill="#fff"/>
  <circle cx="66" cy="38" r="2.2" fill="#fff"/>
  <circle cx="82" cy="38" r="2.2" fill="#fff"/>
  <!-- 메인 버블 2 (우) -->
  <path d="M130 14 Q130 8 138 8 L210 8 Q220 8 220 18 L220 50 Q220 60 210 60 L162 60 L156 68 L156 60 Q130 60 130 50 Z" fill="#3a3a52"/>
  <line x1="142" y1="22" x2="208" y2="22" stroke="#9b9bb0" stroke-width="2.2" stroke-linecap="round" opacity="0.85"/>
  <line x1="142" y1="34" x2="200" y2="34" stroke="#9b9bb0" stroke-width="2.2" stroke-linecap="round" opacity="0.7"/>
  <line x1="142" y1="46" x2="184" y2="46" stroke="#9b9bb0" stroke-width="2.2" stroke-linecap="round" opacity="0.5"/>
  <!-- 빨간 알림 배지 (오른쪽 위 코너) -->
  <circle cx="222" cy="14" r="11" fill="#0e0e12"/>
  <circle cx="222" cy="14" r="9" fill="#e55f5f"/>
  <text x="222" y="18" font-family="Arial,sans-serif" font-size="10" font-weight="bold" fill="#fff" text-anchor="middle">!</text>
</svg>
