<svg xmlns="http://www.w3.org/2000/svg" viewBox="0 0 320 100" width="320" height="100">
  <!-- L6: 글로벌 본사 타워 — 초고층 단일 타워, 골든 야간 도시. -->
  <defs>
    <linearGradient id="sky6" x1="0" y1="0" x2="0" y2="1">
      <stop offset="0%" stop-color="#1a0e3e"/>
      <stop offset="50%" stop-color="#3e2068"/>
      <stop offset="100%" stop-color="#7e3858"/>
    </linearGradient>
    <linearGradient id="tower6" x1="0" y1="0" x2="0" y2="1">
      <stop offset="0%" stop-color="#f8e8b8"/>
      <stop offset="60%" stop-color="#e0c898"/>
      <stop offset="100%" stop-color="#a08858"/>
    </linearGradient>
    <linearGradient id="glass6" x1="0" y1="0" x2="0" y2="1">
      <stop offset="0%" stop-color="#fff5d8" stop-opacity="0.95"/>
      <stop offset="100%" stop-color="#d8a858" stop-opacity="0.7"/>
    </linearGradient>
    <linearGradient id="ground6" x1="0" y1="0" x2="0" y2="1">
      <stop offset="0%" stop-color="#3a2a4a"/>
      <stop offset="100%" stop-color="#1a0e25"/>
    </linearGradient>
  </defs>

  <!-- Sky -->
  <rect width="320" height="100" fill="url(#sky6)"/>

  <!-- Stars -->
  <circle cx="20" cy="6" r="0.7" fill="#fff" opacity="0.9"/>
  <circle cx="50" cy="14" r="0.6" fill="#fff" opacity="0.7"/>
  <circle cx="90" cy="4" r="0.8" fill="#fff" opacity="0.95"/>
  <circle cx="200" cy="8" r="0.7" fill="#fff" opacity="0.85"/>
  <circle cx="245" cy="3" r="0.8" fill="#fff" opacity="0.9"/>
  <circle cx="280" cy="14" r="0.6" fill="#fff" opacity="0.7"/>
  <circle cx="305" cy="7" r="0.7" fill="#fff" opacity="0.8"/>

  <!-- Distant skyline silhouette -->
  <g fill="#1a0e3e" opacity="0.85">
    <rect x="0" y="64" width="14" height="20"/>
    <rect x="14" y="58" width="12" height="26"/>
    <rect x="26" y="62" width="16" height="22"/>
    <rect x="42" y="56" width="14" height="28"/>
    <rect x="56" y="60" width="20" height="24"/>
    <rect x="76" y="54" width="14" height="30"/>
    <rect x="232" y="58" width="14" height="26"/>
    <rect x="246" y="54" width="18" height="30"/>
    <rect x="264" y="60" width="14" height="24"/>
    <rect x="278" y="56" width="16" height="28"/>
    <rect x="294" y="62" width="14" height="22"/>
    <rect x="308" y="58" width="12" height="26"/>
  </g>
  <!-- Distant building windows -->
  <g fill="#f8c878" opacity="0.6">
    <rect x="3" y="68" width="2" height="2"/>
    <rect x="18" y="64" width="2" height="2"/>
    <rect x="32" y="66" width="2" height="2"/>
    <rect x="48" y="62" width="2" height="2"/>
    <rect x="63" y="66" width="2" height="2"/>
    <rect x="80" y="60" width="2" height="2"/>
    <rect x="237" y="64" width="2" height="2"/>
    <rect x="252" y="60" width="2" height="2"/>
    <rect x="270" y="66" width="2" height="2"/>
    <rect x="285" y="62" width="2" height="2"/>
    <rect x="300" y="68" width="2" height="2"/>
  </g>

  <!-- Ground -->
  <rect x="0" y="84" width="320" height="16" fill="url(#ground6)"/>

  <!-- Main tower (HQ) — center, full height -->
  <!-- Tower base (wider) -->
  <rect x="124" y="72" width="72" height="12" fill="#8a7048"/>
  <!-- Tower body -->
  <rect x="134" y="14" width="52" height="58" fill="url(#tower6)"/>
  <!-- Glass facade -->
  <rect x="136" y="16" width="48" height="56" fill="url(#glass6)" opacity="0.6"/>

  <!-- Tower window grid -->
  <g fill="#fff5d8" opacity="0.95">
    <!-- 12 floors x 6 cols -->
    <rect x="140" y="20" width="4" height="3"/>
    <rect x="146" y="20" width="4" height="3"/>
    <rect x="152" y="20" width="4" height="3"/>
    <rect x="158" y="20" width="4" height="3"/>
    <rect x="164" y="20" width="4" height="3"/>
    <rect x="170" y="20" width="4" height="3"/>
    <rect x="176" y="20" width="4" height="3"/>

    <rect x="140" y="26" width="4" height="3"/>
    <rect x="146" y="26" width="4" height="3" opacity="0.4"/>
    <rect x="152" y="26" width="4" height="3"/>
    <rect x="158" y="26" width="4" height="3"/>
    <rect x="164" y="26" width="4" height="3" opacity="0.4"/>
    <rect x="170" y="26" width="4" height="3"/>
    <rect x="176" y="26" width="4" height="3"/>

    <rect x="140" y="32" width="4" height="3"/>
    <rect x="146" y="32" width="4" height="3"/>
    <rect x="152" y="32" width="4" height="3"/>
    <rect x="158" y="32" width="4" height="3" opacity="0.4"/>
    <rect x="164" y="32" width="4" height="3"/>
    <rect x="170" y="32" width="4" height="3"/>
    <rect x="176" y="32" width="4" height="3"/>

    <rect x="140" y="38" width="4" height="3" opacity="0.4"/>
    <rect x="146" y="38" width="4" height="3"/>
    <rect x="152" y="38" width="4" height="3"/>
    <rect x="158" y="38" width="4" height="3"/>
    <rect x="164" y="38" width="4" height="3"/>
    <rect x="170" y="38" width="4" height="3" opacity="0.4"/>
    <rect x="176" y="38" width="4" height="3"/>

    <rect x="140" y="44" width="4" height="3"/>
    <rect x="146" y="44" width="4" height="3"/>
    <rect x="152" y="44" width="4" height="3" opacity="0.4"/>
    <rect x="158" y="44" width="4" height="3"/>
    <rect x="164" y="44" width="4" height="3"/>
    <rect x="170" y="44" width="4" height="3"/>
    <rect x="176" y="44" width="4" height="3"/>

    <rect x="140" y="50" width="4" height="3"/>
    <rect x="146" y="50" width="4" height="3"/>
    <rect x="152" y="50" width="4" height="3"/>
    <rect x="158" y="50" width="4" height="3"/>
    <rect x="164" y="50" width="4" height="3"/>
    <rect x="170" y="50" width="4" height="3"/>
    <rect x="176" y="50" width="4" height="3" opacity="0.4"/>

    <rect x="140" y="56" width="4" height="3"/>
    <rect x="146" y="56" width="4" height="3"/>
    <rect x="152" y="56" width="4" height="3"/>
    <rect x="158" y="56" width="4" height="3"/>
    <rect x="164" y="56" width="4" height="3" opacity="0.4"/>
    <rect x="170" y="56" width="4" height="3"/>
    <rect x="176" y="56" width="4" height="3"/>

    <rect x="140" y="62" width="4" height="3"/>
    <rect x="146" y="62" width="4" height="3"/>
    <rect x="152" y="62" width="4" height="3"/>
    <rect x="158" y="62" width="4" height="3"/>
    <rect x="164" y="62" width="4" height="3"/>
    <rect x="170" y="62" width="4" height="3"/>
    <rect x="176" y="62" width="4" height="3"/>

    <rect x="140" y="68" width="4" height="3"/>
    <rect x="146" y="68" width="4" height="3" opacity="0.4"/>
    <rect x="152" y="68" width="4" height="3"/>
    <rect x="158" y="68" width="4" height="3"/>
    <rect x="164" y="68" width="4" height="3"/>
    <rect x="170" y="68" width="4" height="3"/>
    <rect x="176" y="68" width="4" height="3"/>
  </g>

  <!-- Spire -->
  <polygon points="158,14 162,4 166,14" fill="#f8e8b8"/>
  <rect x="159" y="0" width="2" height="6" fill="#a08858"/>
  <circle cx="160" cy="0" r="1.5" fill="#ff5f5f"/>

  <!-- Side wing buildings (lower) -->
  <rect x="100" y="58" width="22" height="26" fill="#8a7848"/>
  <g fill="#fff5d8" opacity="0.85">
    <rect x="104" y="62" width="3" height="3"/>
    <rect x="110" y="62" width="3" height="3"/>
    <rect x="116" y="62" width="3" height="3"/>
    <rect x="104" y="68" width="3" height="3"/>
    <rect x="110" y="68" width="3" height="3"/>
    <rect x="116" y="68" width="3" height="3"/>
    <rect x="104" y="74" width="3" height="3"/>
    <rect x="116" y="74" width="3" height="3"/>
  </g>

  <rect x="198" y="58" width="22" height="26" fill="#8a7848"/>
  <g fill="#fff5d8" opacity="0.85">
    <rect x="202" y="62" width="3" height="3"/>
    <rect x="208" y="62" width="3" height="3"/>
    <rect x="214" y="62" width="3" height="3"/>
    <rect x="202" y="68" width="3" height="3"/>
    <rect x="214" y="68" width="3" height="3"/>
    <rect x="202" y="74" width="3" height="3"/>
    <rect x="208" y="74" width="3" height="3"/>
    <rect x="214" y="74" width="3" height="3"/>
  </g>

  <!-- Plaza lights -->
  <circle cx="115" cy="88" r="1.2" fill="#f8e8a8" opacity="0.9"/>
  <circle cx="135" cy="88" r="1.2" fill="#f8e8a8" opacity="0.9"/>
  <circle cx="185" cy="88" r="1.2" fill="#f8e8a8" opacity="0.9"/>
  <circle cx="205" cy="88" r="1.2" fill="#f8e8a8" opacity="0.9"/>

  <!-- Tower base banner -->
  <rect x="146" y="76" width="28" height="6" fill="#1a0e3e" stroke="#f8e8b8" stroke-width="0.4"/>
</svg>
